# xmcd
#
# Track frame offsets:
# 182
# 14335
# 30752
# 45590
# 57762
# 69050
# 79387
# 92715
# 104600
# 123617
# 137090
# 149837
# 167890
# 181617
# 193045
#
# Disc length: 2750 seconds
#
#
# Revision: 2
# Processed by: cddbd v1.5.1PL2 Copyright (c) Steve Scherf et al.
# Submitted via: FreeRIP 2.944 
#
DISCID=cb0abc0f
DTITLE=Tião Carreiro and Pardinho - Som Da Terra Volume 2 Pagodes
DYEAR=1900
DGENRE=Country
TTITLE0=Rei Do Pagode
TTITLE1=Em Rempo De Avanço
TTITLE2=Nove E Nove
TTITLE3=Rancho Dos Ipês
TTITLE4=Empreitada Perigosa
TTITLE5=Linha De Frente
TTITLE6=Pagode Em Brasília
TTITLE7=Sete Flechas
TTITLE8=Filho Da Liberdade
TTITLE9=Navalha Na Carne
TTITLE10=Rei Sem Coroa
TTITLE11=A Coisa Tá Feia
TTITLE12=O Mundo No Avesso
TTITLE13=A Majestade "O Pagode"
TTITLE14=Pagode Na Praça
EXTD=
EXTT0=
EXTT1=
EXTT2=
EXTT3=
EXTT4=
EXTT5=
EXTT6=
EXTT7=
EXTT8=
EXTT9=
EXTT10=
EXTT11=
EXTT12=
EXTT13=
EXTT14=
PLAYORDER=
